<svg width="37" height="10" viewBox="0 0 37 10" fill="none" xmlns="http://www.w3.org/2000/svg">
<path fill-rule="evenodd" clip-rule="evenodd" d="M1.5941 0H4.4467C5.45351 0 6.12471 0.251939 6.62811 0.67211C6.96371 1.09228 7.13152 1.7648 6.96371 2.52103C6.71202 4.36995 5.62132 5.294 3.6916 5.294H2.7687C2.6429 5.294 2.53808 5.33585 2.46467 5.39904C2.39119 5.46223 2.3492 5.54635 2.3492 5.63046L2.0136 7.6472C1.92969 7.81503 1.76191 7.98326 1.5941 7.98326H0.25169C0.0839053 7.98326 0 7.89914 0 7.73132L1.1746 0.336055C1.2585 0.168233 1.42631 0 1.5941 0ZM3.10432 3.78154C3.85941 3.78154 4.61451 3.78154 4.78232 2.77297C4.82874 2.54031 4.82378 2.35936 4.79587 2.23011C4.77334 2.12548 4.73588 2.05449 4.69842 2.01674C4.4467 1.68069 3.94332 1.68069 3.43991 1.68069H3.2721C3.10432 1.68069 3.02041 1.7648 3.02041 1.84892L2.68482 3.78154H3.10432Z" fill="#101130"/>
<path fill-rule="evenodd" clip-rule="evenodd" d="M22.1497 0H25.0023C25.9252 0 26.6803 0.251939 27.1837 0.67211C27.5193 1.09228 27.6871 1.7648 27.5193 2.52103C27.2676 4.36995 26.1769 5.294 24.2472 5.294H23.3242C23.0726 5.294 22.9047 5.46223 22.9047 5.63046L22.5692 7.73132C22.5692 7.89914 22.4852 7.98326 22.3175 7.98326H20.8072C20.6395 7.98326 20.5556 7.89914 20.5556 7.73132L21.7302 0.336055C21.8141 0.168233 21.9819 0 22.1497 0ZM23.6599 3.78154C24.415 3.78154 25.1701 3.78154 25.3379 2.77297C25.3379 2.3528 25.3379 2.10086 25.1701 2.01674C24.9184 1.68069 24.415 1.68069 23.9116 1.68069H23.7437C23.576 1.68069 23.4921 1.7648 23.4921 1.84892L23.1565 3.78154H23.6599Z" fill="#101130"/>
<path fill-rule="evenodd" clip-rule="evenodd" d="M13.0885 2.68926H11.7461C11.6622 2.68926 11.4944 2.77297 11.4944 2.85708L11.4105 3.27726L11.3266 3.10943C10.991 2.68926 10.4037 2.52103 9.73246 2.52103C8.22226 2.52103 6.87985 3.69743 6.62816 5.294C6.46035 6.13434 6.71207 6.89098 7.13157 7.39485C7.55107 7.89914 8.13836 8.06738 8.89345 8.06738C10.152 8.06738 10.8232 7.31115 10.8232 7.31115L10.7393 7.73132C10.7393 7.89914 10.8232 7.98326 10.991 7.98326H12.2495C12.2736 7.98326 12.2976 7.97957 12.3215 7.973C12.3407 7.96767 12.3597 7.96069 12.3785 7.95207C12.4127 7.93607 12.4459 7.91473 12.4773 7.8893C12.5565 7.82528 12.6245 7.73624 12.669 7.6472L13.4241 2.9412C13.3402 2.85708 13.1724 2.68926 13.0885 2.68926ZM11.1588 5.37811C10.991 6.13434 10.4037 6.72274 9.56467 6.72274C9.14517 6.72274 8.80957 6.55451 8.64176 6.38669C8.47395 6.13434 8.39007 5.79829 8.39007 5.37811C8.47395 4.62189 9.14517 4.03348 9.90027 4.03348C10.3198 4.03348 10.5715 4.20172 10.8232 4.36995C11.0749 4.62189 11.1588 5.04206 11.1588 5.37811Z" fill="#101130"/>
<path fill-rule="evenodd" clip-rule="evenodd" d="M32.2177 2.68926H33.56C33.6327 2.68926 33.6897 2.72086 33.7377 2.76353C33.7583 2.78158 33.7773 2.8021 33.7952 2.82262C33.8317 2.86488 33.8637 2.9092 33.8957 2.9412L33.1405 7.6472C33.107 7.7145 33.06 7.78179 33.005 7.838C32.9224 7.92253 32.8217 7.98326 32.721 7.98326H31.4625C31.2947 7.98326 31.2108 7.89914 31.2108 7.73132L31.2947 7.31115C31.2947 7.31115 30.6235 8.06738 29.365 8.06738C28.6099 8.06738 28.0226 7.89914 27.6031 7.39485C27.1836 6.89098 26.9319 6.13434 27.0997 5.294C27.3514 3.69743 28.6938 2.52103 30.204 2.52103C30.8752 2.52103 31.4625 2.68926 31.7982 3.10943L31.882 3.27726L31.9659 2.85708C31.9659 2.77297 32.1337 2.68926 32.2177 2.68926ZM30.0362 6.72274C30.8752 6.72274 31.4625 6.13434 31.6303 5.37811C31.7142 5.04206 31.6303 4.62189 31.2947 4.36995C31.043 4.20172 30.7913 4.03348 30.3718 4.03348C29.6167 4.03348 28.9455 4.62189 28.8616 5.37811C28.8616 5.79829 28.9455 6.13434 29.1133 6.38669C29.2811 6.55451 29.6167 6.72274 30.0362 6.72274Z" fill="#101130"/>
<path d="M20.3878 2.68885H18.9615C18.7937 2.68885 18.7098 2.77297 18.6259 2.85708L16.7801 5.71417L15.9411 3.02491C15.8572 2.85708 15.7733 2.77297 15.5216 2.77297H14.1792C14.0944 2.77297 14.031 2.81605 13.9891 2.88006C13.9481 2.94284 13.9275 3.02573 13.9275 3.10902L15.4377 7.56268L14.0114 9.57983C13.9275 9.74765 14.0114 10 14.1792 10H15.5216C15.6894 10 15.7733 9.91588 15.8572 9.83177L20.4717 3.19314C20.7234 2.94079 20.5556 2.68885 20.3878 2.68885Z" fill="#101130"/>
<path d="M34.2313 8.06697C34.0635 8.06697 33.9796 7.98326 33.9796 7.81503L35.1542 0.251939C35.2381 0.083706 35.322 0 35.4059 0.083706H36.7483C36.8504 0.083706 36.9214 0.114891 36.9614 0.17726C36.9871 0.217061 37 0.269993 37 0.336055L35.8254 7.73091C35.7415 7.89914 35.5737 8.06697 35.4059 8.06697H34.2313Z" fill="#101130"/>
</svg>
