<svg width="86" height="18" viewBox="0 0 86 18" fill="none" xmlns="http://www.w3.org/2000/svg">
<path d="M62.1678 0C63.1104 0 63.5258 0.455999 63.414 1.368L63.2462 2.64C63.1344 3.44 62.6551 3.84 61.8083 3.84H60.0827C59.156 3.84 58.7486 3.384 58.8605 2.472L59.0282 1.2C59.1081 0.4 59.5794 0 60.4422 0H62.1678Z" fill="#1B62F8"/>
<path d="M62.7909 5.376L61.1372 17.304H56.7994L58.453 5.376H62.7909Z" fill="#1B62F8"/>
<path fill-rule="evenodd" clip-rule="evenodd" d="M12.1987 0.959999C11.3359 0.688 10.1935 0.552 8.77155 0.552C7.84486 0.552 7.01405 0.559999 6.27909 0.576C5.56011 0.576 4.88107 0.591999 4.24198 0.623999C3.61886 0.639999 2.97977 0.68 2.3247 0.743999L0 17.304C0.750933 17.352 1.48589 17.392 2.20487 17.424C2.92385 17.456 3.71473 17.472 4.5775 17.472C5.44028 17.488 6.46283 17.496 7.64515 17.496C8.98724 17.496 10.0897 17.384 10.9525 17.16C11.8152 16.92 12.4783 16.504 12.9416 15.912C13.405 15.304 13.7165 14.448 13.8763 13.344C14.068 12 13.9402 10.936 13.4928 10.152C13.0455 9.352 12.1827 8.896 10.9045 8.784L10.9285 8.64C12.0469 8.544 12.8458 8.208 13.3251 7.632C13.8204 7.056 14.1479 6.192 14.3077 5.04C14.4515 3.872 14.3556 2.968 14.0201 2.328C13.6846 1.672 13.0774 1.216 12.1987 0.959999ZM8.60379 3.744C9.2269 3.744 9.63432 3.856 9.82605 4.08C10.0338 4.288 10.0977 4.704 10.0178 5.328C9.88996 6.144 9.67427 6.68 9.3707 6.936C9.08311 7.192 8.56384 7.32 7.81291 7.32H5.79977L6.30305 3.744H8.60379ZM5.39235 10.128H7.71705C8.49994 10.128 9.00322 10.256 9.2269 10.512C9.45059 10.768 9.50651 11.304 9.39467 12.12C9.2988 12.712 9.163 13.168 8.98724 13.488C8.82747 13.808 8.57183 14.024 8.22033 14.136C7.86883 14.248 7.3975 14.304 6.80634 14.304H4.81716L5.39235 10.128Z" fill="#1B62F8"/>
<path fill-rule="evenodd" clip-rule="evenodd" d="M26.445 5.544C25.5982 5.208 24.3919 5.04 22.8261 5.04C21.4201 5.04 20.2218 5.208 19.2312 5.544C18.2406 5.864 17.4577 6.472 16.8825 7.368C16.3074 8.248 15.9239 9.528 15.7322 11.208C15.5884 12.6 15.6683 13.768 15.9718 14.712C16.2754 15.656 16.8905 16.376 17.8172 16.872C18.7439 17.352 20.062 17.592 21.7716 17.592C22.6663 17.592 23.601 17.52 24.5756 17.376C25.5662 17.232 26.4609 16.984 27.2598 16.632L26.9483 13.944C26.4849 13.992 25.9417 14.04 25.3186 14.088C24.7114 14.12 24.1203 14.152 23.5451 14.184C22.9859 14.2 22.5305 14.208 22.179 14.208C21.492 14.208 20.9887 14.12 20.6692 13.944C20.3496 13.752 20.1819 13.32 20.1659 12.648L23.4492 12.384C25.015 12.272 26.1893 12.016 26.9722 11.616C27.7711 11.2 28.2504 10.448 28.4102 9.36C28.554 8.416 28.4741 7.624 28.1705 6.984C27.8829 6.344 27.3077 5.864 26.445 5.544ZM21.6038 8.16C21.9074 8.016 22.3068 7.944 22.8021 7.944C23.4093 7.928 23.8167 7.984 24.0244 8.112C24.2321 8.24 24.304 8.512 24.2401 8.928C24.1762 9.44 24.0004 9.768 23.7128 9.912C23.4252 10.056 23.0019 10.152 22.4426 10.2L20.4295 10.416C20.5573 9.744 20.7091 9.232 20.8849 8.88C21.0766 8.528 21.3162 8.288 21.6038 8.16Z" fill="#1B62F8"/>
<path d="M35.5311 5.04C36.1382 5.056 36.8013 5.088 37.5202 5.136C38.2392 5.168 38.9342 5.224 39.6053 5.304C40.2763 5.384 40.8435 5.472 41.3069 5.568L40.9474 8.136H38.5987C37.8318 8.12 37.0809 8.112 36.3459 8.112C35.4672 8.112 34.876 8.136 34.5724 8.184C34.2689 8.216 34.1011 8.344 34.0691 8.568C34.0372 8.776 34.1091 8.936 34.2848 9.048C34.4766 9.16 34.8121 9.296 35.2914 9.456L38.0715 10.32C39.0301 10.608 39.7331 11.048 40.1805 11.64C40.6438 12.232 40.8196 13.016 40.7077 13.992C40.5799 15.016 40.2683 15.784 39.773 16.296C39.2778 16.808 38.6067 17.144 37.7599 17.304C36.9131 17.48 35.9145 17.568 34.7642 17.568C33.9333 17.568 33.0546 17.536 32.1279 17.472C31.2172 17.408 30.1707 17.28 28.9883 17.088L29.3718 14.496C29.6115 14.512 29.955 14.52 30.4023 14.52H33.3262C34.189 14.52 34.844 14.504 35.2914 14.472C35.7388 14.44 36.0503 14.384 36.2261 14.304C36.4018 14.208 36.4977 14.08 36.5137 13.92C36.5456 13.712 36.4657 13.56 36.274 13.464C36.0983 13.368 35.7308 13.232 35.1716 13.056L32.4874 12.168C31.4329 11.832 30.7059 11.336 30.3065 10.68C29.923 10.008 29.7952 9.192 29.923 8.232C30.0349 7.528 30.2745 6.944 30.642 6.48C31.0255 6 31.6086 5.64 32.3915 5.4C33.1744 5.16 34.2209 5.04 35.5311 5.04Z" fill="#1B62F8"/>
<path d="M47.2046 7.608L47.1566 5.376H43.7295L42.0758 17.304H46.4376L47.4442 10.056C48.0514 9.592 48.5706 9.264 49.002 9.072C49.4494 8.864 49.8568 8.752 50.2243 8.736C50.5917 8.704 50.8314 8.776 50.9433 8.952C51.0551 9.112 51.0791 9.408 51.0152 9.84L49.9606 17.304H54.3225L55.5687 8.448C55.7285 7.328 55.5048 6.48 54.8976 5.904C54.3065 5.328 53.5156 5.04 52.525 5.04C51.6463 5.04 50.7355 5.272 49.7929 5.736C48.8662 6.184 48.0034 6.808 47.2046 7.608Z" fill="#1B62F8"/>
<path d="M69.4538 7.392L70.3885 0.504H66.0267L63.678 17.304H68.0398L68.567 13.632C68.583 13.504 68.591 13.36 68.591 13.2C68.8307 13.12 69.0783 13.04 69.334 12.96L70.1009 12.672L72.1859 17.304H76.6675L74.4627 12.624C74.3349 12.336 74.1751 12.064 73.9834 11.808C73.7916 11.536 73.552 11.288 73.2644 11.064C74.1911 10.44 75.0139 9.672 75.7329 8.76C76.4678 7.848 77.0031 6.72 77.3386 5.376H72.857C72.6173 6.384 72.09 7.328 71.2752 8.208C70.4604 9.072 69.5257 9.768 68.4712 10.296C68.7108 9.816 68.9106 9.344 69.0703 8.88C69.2301 8.4 69.3579 7.904 69.4538 7.392Z" fill="#1B62F8"/>
<path d="M83.0042 18C84.6588 18 86 16.6569 86 15C86 13.3431 84.6588 12 83.0042 12C81.3497 12 80.0085 13.3431 80.0085 15C80.0085 16.6569 81.3497 18 83.0042 18Z" fill="#1B62F8"/>
</svg>
