<svg width="30" height="10" viewBox="0 0 30 10" fill="none" xmlns="http://www.w3.org/2000/svg">
<path d="M10.5573 9.83332H13.0053L14.5355 0.172623H12.0873L10.5573 9.83332Z" fill="#101130"/>
<path d="M6.16424 6.81732L8.49799 0.172623H11.1325L7.23793 9.83358H4.68737L2.56061 1.44042C1.17983 0.588417 0 0.336201 0 0.336201L6.7579e-05 0.335957C2.25536e-05 0.335948 0 0.335943 0 0.335943L0.0452717 0.172364H3.90342C4.96504 0.172364 5.06464 1.0422 5.06464 1.0422L5.88833 5.38672C5.88833 5.38672 5.88829 5.38659 5.88821 5.38633L5.88833 5.38698L5.88808 5.38646L6.16424 6.81732Z" fill="#101130"/>
<path fill-rule="evenodd" clip-rule="evenodd" d="M30 9.83332H27.7523L27.4655 8.39832H24.3536L23.8433 9.83332H21.2915L24.9424 0.892317C24.9424 0.892317 25.1637 0.172365 26.0724 0.172365H28.0402L30 9.83332ZM26.3448 2.80073L25.0586 6.416H27.0684L26.3448 2.80073Z" fill="#101130"/>
<path d="M21.8322 0.421221L21.4829 2.4958C20.4354 1.90273 18.0513 1.76241 18.0511 2.85474C18.0511 3.28869 18.5905 3.58713 19.2406 3.94684C20.2266 4.49236 21.4673 5.17879 21.4673 6.69251C21.4673 9.1113 18.9472 10 17.2767 10C15.6066 10 14.5136 9.45448 14.5136 9.45448L14.8775 7.28532C15.8798 8.112 18.9168 8.3469 18.9168 7.03595C18.9168 6.48507 18.3189 6.16021 17.6257 5.7835C16.6691 5.26371 15.5309 4.64523 15.5309 3.19818C15.5309 0.54552 18.4157 0 19.6305 0C20.7543 0 21.8322 0.421221 21.8322 0.421221Z" fill="#101130"/>
</svg>
